v 0.75 0.25 -0.75
vt 0.375 -0.375
vn 1.0 0.0 -0.0
v 0.75 0.75 -0.625
vt 0.34375 -0.25
v 0.75 0.25 -0.625
vt 0.34375 -0.375
f 1/1/1 2/2/1 3/3/1

v 0.75 0.75 -0.75
vt 0.375 -0.25
f 2/2/1 1/1/1 4/4/1

vt -0.625 -0.375
vn 0.0 0.0 -1.0
v 0.625 0.75 -0.75
vt -0.59375 -0.25
vt -0.625 -0.25
f 1/5/2 5/6/2 4/7/2

v 0.625 0.25 -0.75
vt -0.59375 -0.375
f 5/6/2 1/5/2 6/8/2

vt 0.1875 -0.3125
vn 0.0 1.0 -0.0
v 0.625 0.25 -1.0
vt 0.15625 -0.25
vt 0.15625 -0.3125
f 1/9/3 7/10/3 6/11/3

v 1.0 0.25 -1.0
vt 0.25 -0.25
f 7/10/3 1/9/3 8/12/3

v 1.0 0.25 -0.625
vt 0.25 -0.34375
f 8/12/3 1/9/3 9/13/3

vt 0.1875 -0.34375
f 9/13/3 1/9/3 3/14/3

vt -0.375 -0.25
vt -0.3125 -0.125
vt -0.375 -0.125
f 2/15/2 9/16/2 3/17/2

v 0.875 0.75 -0.625
vt -0.34375 -0.25
f 9/16/2 2/15/2 10/18/2

v 0.625 1.0 -0.5625
vt -0.3125 -0.373076
vn 0.0 0.242536 -0.970143
vt -0.375 -0.4375
vt -0.34375 -0.4375
f 11/19/4 10/20/4 2/21/4

v 0.625 1.0 -0.4375
vt 0.577897 -0.23764
vn 0.707107 0.707107 0.0
vt 0.624772 -0.3053
vt 0.609147 -0.23764
f 12/22/5 10/23/5 11/24/5

v 0.875 0.75 -0.375
vt 0.562272 -0.3053
f 10/23/5 12/22/5 13/25/5

vt 0.625 -0.5
vn 0.0 0.242536 0.970143
v 0.75 0.75 -0.375
vt 0.59375 -0.435576
vt 0.5625 -0.435576
f 12/26/6 14/27/6 13/28/6

vt -0.390625 -0.305123
vn -0.894427 -0.447214 0.0
vt -0.4375 -0.375
vt -0.375 -0.375
f 12/29/7 2/30/7 14/31/7

vt -0.421875 -0.305123
f 2/30/7 12/29/7 11/32/7

vt 0.1875 -0.40625
f 4/9/3 14/33/3 2/14/3

v 0.75 0.75 -0.25
vt 0.1875 -0.4375
f 4/9/3 15/34/3 14/33/3

f 5/11/3 15/34/3 4/9/3

v 0.625 0.75 -0.25
vt 0.15625 -0.4375
f 5/11/3 16/35/3 15/34/3

v 0.375 0.75 -0.75
vt 0.09375 -0.3125
f 17/36/3 16/35/3 5/11/3

v 0.375 0.75 -0.25
vt 0.09375 -0.4375
f 17/36/3 18/37/3 16/35/3

v 0.25 0.75 -0.75
vt 0.0625 -0.3125
f 19/38/3 18/37/3 17/36/3

v 0.25 0.75 -0.625
vt 0.0625 -0.34375
f 20/39/3 18/37/3 19/38/3

v 0.25 0.75 -0.375
vt 0.0625 -0.40625
f 21/40/3 18/37/3 20/39/3

v 0.25 0.75 -0.25
vt 0.0625 -0.4375
f 18/37/3 21/40/3 22/41/3

vt -0.53125 -0.25
vn -1.0 0.0 -0.0
v 0.25 0.25 -0.25
vt -0.5 -0.375
vt -0.5 -0.25
f 21/42/8 23/43/8 22/44/8

v 0.25 0.25 -0.375
vt -0.53125 -0.375
f 23/43/8 21/42/8 24/45/8

vt 0.5 -0.25
vn 0.0 0.0 1.0
v 0.0 0.25 -0.375
vt 0.5625 -0.125
vt 0.5 -0.125
f 21/46/9 25/47/9 24/48/9

v 0.125 0.75 -0.375
vt 0.53125 -0.25
f 25/47/9 21/46/9 26/49/9

v 0.375 1.0 -0.4375
vt 0.5625 -0.373076
vt 0.5 -0.4375
vt 0.53125 -0.4375
f 27/50/6 26/51/6 21/52/6

vt -0.2662 0.757251
vn -0.707107 0.707107 0.0
v 0.125 0.75 -0.625
vt -0.313075 0.685888
vt -0.250575 0.685888
f 27/53/10 28/54/10 26/55/10

v 0.375 1.0 -0.5625
vt -0.29745 0.757251
f 28/54/10 27/53/10 29/56/10

vt 0.703125 -0.305123
vn 0.894427 -0.447214 0.0
vt 0.75 -0.375
vt 0.734375 -0.305123
f 27/57/11 20/58/11 29/59/11

vt 0.6875 -0.375
f 20/58/11 27/57/11 21/60/11

vt -0.25 -0.5
vt -0.28125 -0.435577
vt -0.3125 -0.435577
f 29/61/4 20/62/4 28/63/4

v 0.25 0.25 -0.625
vt -0.34375 0.0
vt -0.375 0.0
f 30/17/2 28/64/2 20/65/2

v 0.0 0.25 -0.625
f 28/64/2 30/17/2 31/16/2

v 0.0 0.25 -1.0
vt 0.0 -0.25
vt 0.0 -0.34375
f 30/39/3 32/66/3 31/67/3

v 0.25 0.25 -0.75
f 32/66/3 30/39/3 33/38/3

vt -0.5625 -0.25
vt -0.5625 -0.375
f 30/45/8 19/68/8 33/69/8

f 19/68/8 30/45/8 20/42/8

v 0.375 0.25 -0.75
f 19/68/2 34/8/2 33/69/2

f 34/8/2 19/68/2 17/6/2

v 0.375 0.75 -0.875
vt -0.28125 -0.25
vt -0.3125 -0.25
f 35/70/8 34/16/8 17/71/8

v 0.375 0.25 -1.0
vt -0.25 -0.125
f 34/16/8 35/70/8 36/72/8

vn -0.0 0.242536 -0.970143
vt -0.625 -0.503847
vt -0.5625 -0.503847
f 35/69/12 7/73/12 36/74/12

v 0.625 0.75 -0.875
f 7/73/12 35/69/12 37/5/12

v 0.4375 1.0 -0.625
vt -0.329709 -0.243057
vn 0.0 0.707107 -0.707107
vt -0.376584 -0.311411
vt -0.314084 -0.311411
f 38/75/13 37/76/13 35/77/13

v 0.5625 1.0 -0.625
vt -0.360959 -0.243057
f 37/76/13 38/75/13 39/78/13

vt 0.625 -0.375
vn -0.0 -0.447214 0.894427
vt 0.671875 -0.305123
vt 0.640625 -0.305123
f 17/79/14 39/80/14 38/81/14

f 39/80/14 17/79/14 5/60/14

vt 0.625 -0.435576
vn 0.970143 0.242536 -0.0
vt 0.6875 -0.5
vt 0.65625 -0.435576
f 37/82/15 39/83/15 5/84/15

vt 0.5625 0.0
vt 0.625 -0.125
vt 0.59375 0.0
f 5/85/1 7/86/1 37/87/1

f 7/86/1 5/85/1 6/47/1

vt -0.3125 -0.4375
vn -0.970143 0.242536 -0.0
vt -0.28125 -0.4375
vt -0.25 -0.373076
f 35/88/16 17/89/16 38/90/16

vt -0.75 -0.125
vt -0.59375 -0.125
vt -0.65625 -0.125
f 8/91/2 36/92/2 7/93/2

vt -0.5 -0.125
f 8/91/2 32/94/2 36/92/2

v 1.0 -0.0 -1.0
vt -0.75 -0.1875
f 40/95/2 32/94/2 8/91/2

v 0.0 -0.0 -1.0
vt -0.5 -0.1875
f 32/94/2 40/95/2 41/96/2

vt -1.0 1.0
vn 0.0 -1.0 -0.0
v 0.0 -0.0 -0.0
vt -0.75 0.75
vt -0.75 1.0
f 40/97/17 42/98/17 41/99/17

v 1.0 -0.0 -0.0
vt -1.0 0.75
f 42/98/17 40/97/17 43/100/17

v 1.0 0.25 -0.0
vt 0.25 -0.0625
vt 0.25 -0.125
f 40/48/1 44/101/1 43/102/1

v 1.0 0.25 -0.375
vt 0.34375 -0.0625
f 44/101/1 40/48/1 45/103/1

vt 0.40625 -0.0625
f 45/103/1 40/48/1 9/104/1

vt 0.5 -0.0625
f 9/104/1 40/48/1 8/105/1

vt 0.375 -0.503847
vn 0.970143 0.242536 -0.0
vt 0.3125 -0.375
vt 0.3125 -0.503847
f 9/106/18 13/107/18 45/108/18

f 13/107/18 9/106/18 10/1/18

vt 0.53125 0.0
v 0.75 0.25 -0.375
f 13/109/9 46/48/9 45/47/9

vt 0.5 0.0
f 46/48/9 13/109/9 14/110/9

vt 0.3125 -0.25
f 15/111/1 46/3/1 14/2/1

v 0.75 0.25 -0.25
f 46/3/1 15/111/1 47/107/1

v 0.625 0.25 -0.25
vt 0.28125 -0.375
f 15/111/9 48/112/9 47/107/9

vt 0.28125 -0.25
f 48/112/9 15/111/9 16/113/9

v 0.625 0.75 -0.125
vt 0.59375 -0.25
vt 0.5625 -0.25
f 49/114/1 48/47/1 16/115/1

v 0.625 0.25 -0.0
f 48/47/1 49/114/1 50/86/1

v 0.375 0.25 -0.0
vt 0.25 -0.503847
f 49/107/6 51/116/6 50/108/6

v 0.375 0.75 -0.125
vt 0.25 -0.375
f 51/116/6 49/107/6 52/117/6

vt 0.561472 0.687512
vn -0.0 0.707107 0.707107
v 0.4375 1.0 -0.375
vt 0.514597 0.750012
vt 0.498972 0.687512
f 49/118/19 53/119/19 52/120/19

v 0.5625 1.0 -0.375
vt 0.545847 0.750012
f 53/119/19 49/118/19 54/121/19

vt 0.625 -0.373076
vt 0.5625 -0.4375
vt 0.59375 -0.4375
f 54/122/15 49/123/15 16/124/15

vn -0.0 -0.447214 -0.894427
vt -0.453125 -0.305123
vt -0.484375 -0.305123
f 16/43/20 53/125/20 54/126/20

f 53/125/20 16/43/20 18/30/20

vt -0.4375 -0.5
vt -0.46875 -0.435576
vt -0.5 -0.435576
f 53/127/16 18/128/16 52/129/16

v 0.375 0.25 -0.25
vt -0.28125 0.0
vt -0.3125 0.0
f 55/16/8 52/130/8 18/131/8

f 52/130/8 55/16/8 51/72/8

vt 0.09375 -0.5
f 23/41/3 51/132/3 55/37/3

vt 0.0 -0.40625
f 25/133/3 51/132/3 23/41/3

v 0.0 0.25 -0.0
vt 0.0 -0.5
f 51/132/3 25/133/3 56/134/3

vt -0.59375 -0.1875
f 25/135/8 42/44/8 56/96/8

vt -0.75 -0.25
f 42/44/8 25/135/8 41/136/8

vt -0.65625 -0.1875
f 41/136/8 25/135/8 31/137/8

vt -0.5 -0.503847
f 25/138/16 28/69/16 31/74/16

f 28/69/16 25/138/16 26/43/16

f 41/136/8 31/137/8 32/95/8

vt 0.25 0.0
f 42/101/9 44/110/9 56/139/9

f 44/110/9 42/101/9 43/105/9

vt 0.40625 0.0
f 56/139/9 44/110/9 50/140/9

vt 0.25 -0.5
vt 0.15625 -0.5
f 44/141/3 48/35/3 50/142/3

f 48/35/3 44/141/3 47/34/3

f 47/34/3 44/141/3 46/33/3

vt 0.25 -0.40625
f 46/33/3 44/141/3 45/143/3

vt 0.34375 0.0
f 56/139/9 50/140/9 51/144/9

f 24/40/3 25/133/3 23/41/3

f 18/113/9 23/117/9 55/112/9

f 23/117/9 18/113/9 22/12/9

vt 0.09375 -0.25
f 32/66/3 33/38/3 36/145/3

f 36/145/3 33/38/3 34/36/3

