v 0.125 0.125 -0.40625
vt 0.03125 -0.398438 
vn 0.0 1.0 -0.0
v 0.125 0.125 -0.59375
vt 0.03125 -0.351563 
v 0.125 0.125 -0.125
vt 0.03125 -0.46875 
f 1/1/1 2/2/1 3/3/1
 
vt -0.640625 0.0 
vn -0.998178 0.0603458 0.0
v 0.150906 0.553504 -0.59375
vt -0.6875 0.107321 
vt -0.6875 0.0 
f 1/4/2 4/5/2 2/6/2
 
v 0.150906 0.553504 -0.40625
vt -0.640625 0.107321 
f 4/5/2 1/4/2 5/7/2
 
v 0.40625 0.625 -0.40625
vt 0.601563 -0.0625 
vn 0.0 0.0 1.0
vt 0.537726 -0.0803741 
vt 0.53125 -0.1875 
f 6/8/3 5/9/3 1/10/3
 
v 0.24283 0.716924 -0.40625
vt 0.560707 -0.039519 
f 5/9/3 6/8/3 7/11/3
 
vt 0.3125 0.203125 
vn 0.490261 0.871576 -0.0
v 0.24283 0.716924 -0.59375
vt 0.359375 0.25 
vt 0.3125 0.25 
f 6/12/4 8/13/4 7/14/4
 
v 0.40625 0.625 -0.59375
vt 0.359375 0.203125 
f 8/13/4 6/12/4 9/15/4
 
v 0.59375 0.625 -0.40625
vt 0.296875 0.140625 
vt 0.25 0.1875 
vt 0.25 0.140625 
f 10/16/1 9/17/1 6/18/1
 
v 0.59375 0.625 -0.59375
vt 0.296875 0.1875 
f 9/17/1 10/16/1 11/19/1
 
v 0.75717 0.716924 -0.40625
vt -0.515625 0.25 
vn -0.490261 0.871576 -0.0
vt -0.5625 0.203125 
vt -0.515625 0.203125 
f 12/20/5 11/21/5 10/22/5
 
v 0.75717 0.716924 -0.59375
vt -0.5625 0.25 
f 11/21/5 12/20/5 13/23/5
 
v 0.875 0.875 -0.4375
vt -0.523438 0.5 
vn -0.801767 0.597636 -0.0
vt -0.5625 0.45071 
vt -0.515625 0.45071 
f 14/24/6 13/25/6 12/26/6
 
v 0.875 0.875 -0.5625
vt -0.554688 0.5 
f 13/25/6 14/24/6 15/27/6
 
vt -0.825444 0.25 
vn -1.0 0.0 -0.0
v 0.875 1.0 -0.635723
vt -0.875 0.28125 
vt -0.856694 0.25 
f 14/28/7 16/29/7 15/30/7
 
v 0.875 0.875 -0.364277
vt -0.807138 0.25 
f 17/31/7 16/29/7 14/28/7
 
v 0.875 1.0 -0.364277
vt -0.807138 0.28125 
f 16/29/7 17/31/7 18/32/7
 
vt -0.9375 0.25 
vn -0.707107 0.0 -0.707107
v 0.635723 1.0 -0.125
vt -0.869822 0.28125 
vt -0.9375 0.28125 
f 17/33/8 19/34/8 18/35/8
 
v 0.635723 0.875 -0.125
vt -0.869822 0.25 
f 19/34/8 17/33/8 20/36/8
 
v 0.6875 0.875 0.0
vt -0.671875 -0.5 
vn 0.0 -1.0 -0.0
vt -0.658931 -0.46875 
vt -0.71875 -0.408931 
f 21/37/9 20/38/9 17/39/9
 
v 0.5625 0.875 0.0
vt -0.640625 -0.5 
f 22/40/9 20/38/9 21/37/9
 
v 0.5625 0.875 -0.125
vt -0.640625 -0.46875 
f 20/38/9 22/40/9 23/41/9
 
v 0.59375 0.716924 -0.24283
vt -0.314293 -0.0402838 
vn 0.981014 0.193936 -0.0
vt -0.34375 0.0 
vt -0.375 0.0 
f 24/42/10 23/43/10 22/44/10
 
vt -0.625 0.45071 
vn 0.0 0.597636 -0.801767
v 0.4375 0.875 -0.125
vt -0.585938 0.5 
vt -0.617188 0.5 
f 24/45/11 25/46/11 23/47/11
 
v 0.40625 0.716924 -0.24283
vt -0.578125 0.45071 
f 25/46/11 24/45/11 26/48/11
 
vt -0.625 0.25 
vn 0.0 0.871576 -0.490261
vt -0.578125 0.203125 
vt -0.578125 0.25 
f 24/49/12 6/50/12 26/51/12
 
vt -0.625 0.203125 
f 6/50/12 24/49/12 10/52/12
 
v 0.59375 0.553504 -0.150906
vt 0.662726 -0.0803741 
vn 1.0 0.0 -0.0
vt 0.726563 -0.0625 
vt 0.685707 -0.039519 
f 27/53/13 10/54/13 24/55/13
 
v 0.59375 0.125 -0.125
vt 0.65625 -0.1875 
f 10/54/13 27/53/13 28/56/13
 
vt 0.421875 0.107321 
vn 0.0 0.0603458 0.998178
v 0.40625 0.125 -0.125
vt 0.375 0.0 
vt 0.421875 0.0 
f 27/57/14 29/58/14 28/59/14
 
v 0.40625 0.553504 -0.150906
vt 0.375 0.107321 
f 29/58/14 27/57/14 30/60/14
 
vt 0.289063 0.451104 
vn 0.0 -0.424905 0.905238
vt 0.25 0.375 
vt 0.296875 0.375 
f 22/61/15 30/62/15 27/63/15
 
v 0.4375 0.875 0.0
vt 0.257813 0.451104 
f 30/62/15 22/61/15 31/64/15
 
vt 0.0520833 0.34375 
v 0.6875 1.0 0.0
vt 0.078125 0.375 
vt 0.0260417 0.34375 
f 22/65/3 32/66/3 31/67/3
 
vt 0.078125 0.34375 
f 32/66/3 22/65/3 21/68/3
 
v 1.0 0.875 -0.3125
vt 0.175405 0.34375 
vn 0.707107 0.0 0.707107
vt 0.0833334 0.375 
vt 0.0833334 0.34375 
f 33/69/16 32/70/16 21/71/16
 
v 1.0 1.0 -0.3125
vt 0.175405 0.375 
f 32/70/16 33/69/16 34/72/16
 
v 1.0 0.875 -0.4375
vt 0.192708 0.34375 
vt 0.166667 0.375 
vt 0.166667 0.34375 
f 35/73/13 34/74/13 33/75/13
 
v 1.0 1.0 -0.6875
vt 0.244792 0.375 
f 34/74/13 35/73/13 36/76/13
 
v 1.0 0.875 -0.5625
vt 0.21875 0.34375 
f 36/76/13 35/73/13 37/77/13
 
vt 0.320313 0.451104 
vn 0.905238 -0.424905 -0.0
v 0.849094 0.553504 -0.59375
vt 0.359375 0.375 
vt 0.351563 0.451104 
f 35/78/17 38/79/17 37/80/17
 
v 0.849094 0.553504 -0.40625
vt 0.3125 0.375 
f 38/79/17 35/78/17 39/81/17
 
vt 0.0 -0.25 
vn 0.0936528 0.0526797 0.99421
vt -0.0611725 -0.289574 
vt -0.0382928 -0.330486 
f 35/82/18 12/83/18 39/84/18
 
vt -0.03125 -0.25 
vn 0.0 0.193936 0.981014
vt -0.0607074 -0.290284 
vt 0.0 -0.25 
f 14/85/19 12/86/19 35/87/19
 
vt -0.75 -0.390625 
vt -0.71875 -0.390625 
f 35/88/9 17/39/9 14/89/9
 
vt -0.75 -0.421875 
f 33/90/9 17/39/9 35/88/9
 
f 21/37/9 17/39/9 33/90/9
 
vt -0.101562 -0.3125 
vt -0.0377264 -0.330374 
vt -0.0607074 -0.289519 
f 10/91/3 39/92/3 12/93/3
 
v 0.875 0.125 -0.40625
vt -0.03125 -0.4375 
f 39/92/3 10/91/3 40/94/3
 
vt 0.125046 -0.874515 
vn 0.871576 0.490261 -0.0
v 0.875 0.125 -0.125
vt 0.0635254 -1.0 
vt 0.125046 -1.0 
f 10/95/20 41/96/20 40/97/20
 
vt 0.0 0.250638 
vn 0.0 0.490261 0.871576
vt 0.0 0.125153 
vt 0.0615203 0.125153 
f 10/98/21 28/99/21 41/100/21
 
vt 0.148437 -0.46875 
v 1.0 0.125 0.0
vt 0.25 -0.5 
vt 0.21875 -0.46875 
f 28/101/1 42/102/1 41/103/1
 
vt 0.101562 -0.46875 
f 29/104/1 42/102/1 28/101/1
 
f 3/3/1 42/102/1 29/104/1
 
v 0.0 0.125 0.0
vt 0.0 -0.5 
f 3/3/1 43/105/1 42/102/1
 
v 0.0 0.125 -1.0
vt 0.0 -0.25 
f 43/105/1 3/3/1 44/106/1
 
v 0.125 0.125 -0.875
vt 0.03125 -0.28125 
f 45/107/1 44/106/1 3/3/1
 
v 1.0 0.125 -1.0
vt 0.25 -0.25 
f 44/106/1 45/107/1 46/108/1
 
v 0.40625 0.125 -0.875
vt 0.101562 -0.28125 
f 46/108/1 45/107/1 47/109/1
 
vt -0.874954 -0.874954 
vn 0.0 0.490261 -0.871576
vt -0.874954 -0.74947 
vt -0.936474 -0.74947 
f 9/110/22 47/111/22 45/112/22
 
v 0.40625 0.716924 -0.75717
vt -0.0642926 -0.039519 
vt -0.09375 -0.1875 
vt -0.0234375 -0.0625 
f 48/113/7 47/114/7 9/115/7
 
v 0.40625 0.553504 -0.849094
vt -0.0872736 -0.0803741 
f 47/114/7 48/113/7 49/116/7
 
v 0.4375 0.875 -1.0
vt -1.125 -0.000620284 
vn -0.99421 0.0526797 -0.0936528
vt -1.08671 -0.0811061 
vt -1.06383 -0.0401942 
f 50/117/23 49/118/23 48/119/23
 
vt -0.585938 0.451104 
vn 0.0 -0.424905 -0.905238
v 0.59375 0.553504 -0.849094
vt -0.625 0.375 
vt -0.578125 0.375 
f 50/120/24 51/121/24 49/122/24
 
v 0.5625 0.875 -1.0
vt -0.617188 0.451104 
f 51/121/24 50/120/24 52/123/24
 
vt -0.947917 0.296875 
vn 0.0 0.0 -1.0
v 0.3125 1.0 -1.0
vt -0.921875 0.328125 
vt -0.973958 0.296875 
f 50/124/25 53/125/25 52/126/25
 
v 0.3125 0.875 -1.0
vt -0.921875 0.296875 
f 53/125/25 50/124/25 54/127/25
 
v 0.364277 0.875 -0.875
vt -0.591069 -0.28125 
vt -0.578125 -0.25 
vt -0.609375 -0.25 
f 55/128/9 54/129/9 50/130/9
 
v 0.125 0.875 -0.635723
vt -0.53125 -0.341069 
f 56/131/9 54/129/9 55/128/9
 
v 0.0 0.875 -0.5625
vt -0.5 -0.359375 
f 57/132/9 54/129/9 56/131/9
 
v 0.0 0.875 -0.6875
vt -0.5 -0.328125 
f 54/129/9 57/132/9 58/133/9
 
vt -0.807292 0.296875 
v 0.0 1.0 -0.6875
vt -0.833333 0.328125 
vt -0.833333 0.296875 
f 57/134/7 59/135/7 58/136/7
 
v 0.0 0.875 -0.4375
vt -0.78125 0.296875 
f 60/137/7 59/135/7 57/134/7
 
v 0.0 0.875 -0.3125
vt -0.755208 0.296875 
f 61/138/7 59/135/7 60/137/7
 
v 0.0 1.0 -0.3125
vt -0.755208 0.328125 
f 59/135/7 61/138/7 62/139/7
 
vt -0.75 0.296875 
vn -0.707107 0.0 0.707107
v 0.3125 1.0 0.0
vt -0.657929 0.328125 
vt -0.75 0.328125 
f 61/140/26 63/141/26 62/142/26
 
v 0.3125 0.875 0.0
vt -0.657929 0.296875 
f 63/141/26 61/140/26 64/143/26
 
vt -0.5 -0.421875 
v 0.125 0.875 -0.364277
vt -0.53125 -0.408931 
vt -0.578125 -0.5 
f 61/144/9 65/145/9 64/146/9
 
v 0.125 0.875 -0.4375
vt -0.53125 -0.390625 
f 61/144/9 66/147/9 65/145/9
 
vt -0.5 -0.390625 
f 66/147/9 61/144/9 60/148/9
 
vt -0.5 0.0 
vn 0.0 0.193936 0.981014
vt -0.439293 -0.0402838 
vt -0.46875 0.0 
f 60/149/27 7/150/27 66/151/27
 
vt -0.499994 -0.00248114 
vn -0.0936528 0.0526797 0.99421
vt -0.461701 -0.082967 
vt -0.438821 -0.0420551 
f 60/152/28 5/153/28 7/154/28
 
vt -0.523437 0.451104 
vn -0.905238 -0.424905 0.0
vt -0.5625 0.375 
vt -0.515625 0.375 
f 60/155/29 4/156/29 5/157/29
 
vt -0.554687 0.451104 
f 4/156/29 60/155/29 57/158/29
 
vt -1.25 -0.248759 
vn -0.0936528 0.0526797 -0.99421
vt -1.31117 -0.288333 
vt -1.28829 -0.329245 
f 57/159/30 8/160/30 4/161/30
 
v 0.125 0.875 -0.5625
vt -1.28125 -0.25 
vn 0.0 0.193936 -0.981014
vt -1.31071 -0.290284 
vt -1.25 -0.25 
f 67/162/31 8/163/31 57/164/31
 
vt 0.320312 0.5 
vn 0.801767 0.597636 -0.0
vt 0.359375 0.45071 
vt 0.351562 0.5 
f 66/165/32 8/166/32 67/167/32
 
vt 0.3125 0.45071 
f 8/166/32 66/165/32 7/168/32
 
v 0.125 1.0 -0.635723
vt 0.442862 0.28125 
vt 0.393306 0.25 
vt 0.424556 0.25 
f 68/169/13 66/170/13 67/171/13
 
v 0.125 1.0 -0.364277
vt 0.375 0.28125 
f 69/172/13 66/170/13 68/169/13
 
vt 0.375 0.25 
f 66/170/13 69/172/13 65/173/13
 
v 0.364277 1.0 -0.125
vt 0.4375 0.28125 
vn 0.707107 0.0 -0.707107
vt 0.505178 0.25 
vt 0.505178 0.28125 
f 70/174/33 65/175/33 69/176/33
 
v 0.364277 0.875 -0.125
vt 0.4375 0.25 
f 65/175/33 70/174/33 71/177/33
 
vt -0.932138 0.28125 
vn 0.0 0.0 -1.0
vt -0.950444 0.25 
vt -0.932138 0.25 
f 70/178/34 25/179/34 71/180/34
 
vt -0.981694 0.25 
f 25/179/34 70/178/34 23/181/34
 
vt -1.0 0.25 
f 23/181/34 70/178/34 20/182/34
 
vt -1.0 0.28125 
f 20/182/34 70/178/34 19/183/34
 
vt 0.341069 -0.21875 
vt 0.421875 -0.25 
vt 0.408931 -0.21875 
f 70/184/1 32/185/1 19/186/1
 
vt 0.328125 -0.25 
f 70/184/1 63/187/1 32/185/1
 
vt 0.28125 -0.158931 
f 69/188/1 63/187/1 70/184/1
 
vt 0.25 -0.171875 
f 69/188/1 62/189/1 63/187/1
 
vt 0.25 -0.078125 
f 62/189/1 69/188/1 59/190/1
 
vt 0.28125 -0.0910692 
f 68/191/1 59/190/1 69/188/1
 
vt 0.328125 0.0 
f 59/190/1 68/191/1 53/192/1
 
v 0.364277 1.0 -0.875
vt 0.341069 -0.03125 
f 53/192/1 68/191/1 72/193/1
 
vt 0.3125 0.28125 
vt 0.380178 0.25 
vt 0.380178 0.28125 
f 68/194/16 55/195/16 72/196/16
 
f 55/195/16 68/194/16 56/14/16
 
vt 0.442862 0.25 
f 68/169/13 67/171/13 56/197/13
 
vt -0.53125 -0.359375 
f 67/198/9 57/132/9 56/131/9
 
vt 0.25 0.25 
v 0.635723 1.0 -0.875
vt 0.317862 0.28125 
vt 0.25 0.28125 
f 55/199/3 73/200/3 72/201/3
 
v 0.4375 0.875 -0.875
vt 0.268306 0.25 
f 74/202/3 73/200/3 55/199/3
 
v 0.5625 0.875 -0.875
vt 0.299556 0.25 
f 75/203/3 73/200/3 74/202/3
 
v 0.635723 0.875 -0.875
vt 0.317862 0.25 
f 73/200/3 75/203/3 76/204/3
 
vt -0.640625 -0.28125 
v 0.6875 0.875 -1.0
vt -0.671875 -0.25 
vt -0.658931 -0.28125 
f 75/205/9 77/206/9 76/207/9
 
vt -0.640625 -0.25 
f 77/206/9 75/205/9 52/208/9
 
vt -0.125 -0.25 
vt -0.15625 -0.25 
v 0.59375 0.716924 -0.75717
vt -0.185707 -0.290284 
f 52/209/10 75/210/10 78/211/10
 
vt 0.289062 0.5 
vn 0.0 0.597636 0.801767
vt 0.25 0.45071 
vt 0.296875 0.45071 
f 75/212/35 48/213/35 78/214/35
 
vt 0.257812 0.5 
f 48/213/35 75/212/35 74/215/35
 
vt -1.125 0.0 
vn -0.981014 0.193936 -0.0
vt -1.06429 -0.0402838 
vt -1.09375 0.0 
f 50/216/36 48/217/36 74/218/36
 
vt -0.609375 -0.28125 
f 55/128/9 50/130/9 74/219/9
 
vn 0.0 0.871576 0.490261
vt 0.296875 0.203125 
vt 0.296875 0.25 
f 48/199/37 11/220/37 78/221/37
 
vt 0.25 0.203125 
f 11/220/37 48/199/37 9/222/37
 
v 0.59375 0.125 -0.875
vt -0.15625 -0.4375 
vt -0.185707 -0.289519 
vt -0.226562 -0.3125 
f 79/223/13 78/224/13 11/225/13
 
vt -0.162726 -0.330374 
f 78/224/13 79/223/13 51/226/13
 
vt -0.75 0.0 
vn 0.0 0.0603458 -0.998178
vt -0.703125 0.107321 
vt -0.75 0.107321 
f 79/227/38 49/228/38 51/229/38
 
vt -0.703125 0.0 
f 49/228/38 79/227/38 47/230/38
 
vt 0.148437 -0.28125 
f 46/108/1 47/109/1 79/231/1
 
v 0.875 0.125 -0.875
vt 0.21875 -0.28125 
f 46/108/1 79/231/1 80/232/1
 
vt -0.813434 -0.74947 
f 11/110/22 80/233/22 79/111/22
 
vt 0.186566 -1.0 
v 0.875 0.125 -0.59375
f 80/234/20 11/95/20 81/97/20
 
vt -0.148437 -0.0625 
vt -0.212274 -0.0803741 
vt -0.21875 -0.1875 
f 11/235/25 38/236/25 81/237/25
 
vt -0.189293 -0.039519 
f 38/236/25 11/235/25 13/238/25
 
vt -1.25 -0.00122642 
vn 0.0936528 0.0526797 -0.99421
vt -1.21171 -0.0817123 
vt -1.18883 -0.0408004 
f 37/239/39 38/240/39 13/241/39
 
vt -1.25 0.0 
vt -1.18929 -0.0402838 
vt -1.21875 0.0 
f 37/242/31 13/243/31 15/244/31
 
vt -0.71875 -0.359375 
v 1.0 0.875 -0.6875
vt -0.75 -0.328125 
vt -0.75 -0.359375 
f 15/245/9 82/246/9 37/247/9
 
v 0.875 0.875 -0.635723
vt -0.71875 -0.341069 
f 83/248/9 82/246/9 15/245/9
 
f 83/248/9 77/206/9 82/246/9
 
f 76/207/9 77/206/9 83/248/9
 
vt 0.255178 0.25 
vt 0.1875 0.28125 
vt 0.1875 0.25 
f 83/249/26 73/250/26 76/251/26
 
vt 0.255178 0.28125 
f 73/250/26 83/249/26 16/252/26
 
vt -0.875 0.25 
f 15/30/7 16/29/7 83/253/7
 
v 0.6875 1.0 -1.0
vt 0.421875 0.0 
vt 0.408931 -0.03125 
vt 0.46875 -0.0910692 
f 84/254/1 73/255/1 16/256/1
 
f 84/254/1 72/193/1 73/255/1
 
f 53/192/1 72/193/1 84/254/1
 
vt -1.0 0.296875 
vt -1.0 0.328125 
f 77/257/25 53/125/25 84/258/25
 
f 52/126/25 53/125/25 77/257/25
 
vt -0.75 0.375 
vt -0.657929 0.34375 
vt -0.657929 0.375 
f 36/259/33 77/260/33 84/261/33
 
vt -0.75 0.34375 
f 77/260/33 36/259/33 82/262/33
 
vt 0.244792 0.34375 
f 36/76/13 37/77/13 82/263/13
 
vt 0.5 -0.078125 
f 84/254/1 16/256/1 36/264/1
 
vt 0.5 -0.171875 
f 36/264/1 16/256/1 34/265/1
 
vt 0.46875 -0.158931 
f 18/266/1 34/265/1 16/256/1
 
f 18/266/1 32/185/1 34/265/1
 
f 19/186/1 32/185/1 18/266/1
 
vt 0.4375 0.107321 
vn 0.998178 0.0603458 -0.0
vt 0.484375 0.0 
vt 0.484375 0.107321 
f 39/267/40 81/268/40 38/269/40
 
vt 0.4375 0.0 
f 81/268/40 39/267/40 40/270/40
 
vt 0.21875 -0.398438 
vt 0.21875 -0.351563 
f 40/271/1 42/102/1 81/272/1
 
f 41/103/1 42/102/1 40/271/1
 
f 81/272/1 42/102/1 80/232/1
 
f 46/108/1 80/232/1 42/102/1
 
vt 0.0 -0.53125 
v 1.0 0.0 -1.0
vt 0.25 -0.5625 
vt 0.25 -0.53125 
f 42/273/13 85/274/13 46/275/13
 
v 1.0 0.0 0.0
vt 0.0 -0.5625 
f 85/274/13 42/273/13 86/276/13
 
v 0.0 0.0 0.0
vt 0.0 -0.53125 
f 42/102/3 87/277/3 86/275/3
 
vt 0.0 -0.5 
f 87/277/3 42/102/3 43/278/3
 
vt -1.0 -0.59375 
vt -0.75 -0.625 
vt -0.75 -0.59375 
f 44/279/7 87/280/7 43/281/7
 
v 0.0 0.0 -1.0
vt -1.0 -0.625 
f 87/280/7 44/279/7 88/282/7
 
vt -0.75 -0.5625 
f 44/283/25 85/279/25 88/281/25
 
vt -1.0 -0.5625 
f 85/279/25 44/283/25 46/284/25
 
vt -1.0 1.0 
vt -0.75 0.75 
vt -0.75 1.0 
f 85/285/9 87/286/9 88/287/9
 
vt -1.0 0.75 
f 87/286/9 85/285/9 86/288/9
 
vt -0.124998 -0.24938 
vn 0.99421 0.0526797 -0.0936528
vt -0.186171 -0.288954 
vt -0.163291 -0.329866 
f 52/289/41 78/290/41 51/291/41
 
vt -0.916667 0.328125 
vn -0.707107 0.0 -0.707107
vt -0.824595 0.296875 
vt -0.824595 0.328125 
f 53/292/42 58/293/42 59/294/42
 
vt -0.916667 0.296875 
f 58/293/42 53/292/42 54/295/42
 
vt 0.0 0.34375 
vt 0.0 0.375 
f 64/296/3 32/66/3 63/297/3
 
f 31/67/3 32/66/3 64/296/3
 
vt -0.591069 -0.46875 
vt -0.609375 -0.5 
f 64/146/9 71/298/9 31/299/9
 
f 64/146/9 65/145/9 71/298/9
 
vt -0.609375 -0.46875 
f 31/299/9 71/298/9 25/300/9
 
vt -1.43571 -0.290284 
vt -1.375 -0.25 
vt -1.40625 -0.25 
f 26/301/36 31/302/36 25/303/36
 
vt -1.4362 -0.288472 
vn -0.99421 0.0526797 0.0936528
vt -1.41332 -0.329383 
vt -1.37503 -0.248898 
f 26/304/43 30/305/43 31/306/43
 
vt -1.47656 -0.3125 
vt -1.41273 -0.330374 
vt -1.43571 -0.289519 
f 6/307/7 30/308/7 26/309/7
 
vt -1.40625 -0.4375 
f 30/308/7 6/307/7 29/310/7
 
vt 0.0 0.0 
vn 0.0 0.490261 0.871576
vt 0.0615039 0.125451 
vt 0.0 0.125451 
f 6/311/44 3/312/44 29/313/44
 
vt -0.750091 0.125485 
vn -0.871576 0.490261 -0.0
vt -0.811611 0.125485 
vt -0.750091 0.0 
f 1/314/45 3/315/45 6/316/45
 
vt -1.35156 -0.3125 
vt -1.28773 -0.330374 
vt -1.31071 -0.289519 
f 9/317/25 4/318/25 8/319/25
 
vt -1.28125 -0.4375 
f 4/318/25 9/317/25 2/320/25
 
vt -0.811611 0.125046 
vt -0.750091 0.125046 
vt -0.750091 0.25053 
f 45/321/45 2/322/45 9/323/45
 
f 45/107/1 3/3/1 2/2/1
 
vt -0.313823 -0.0414348 
vn 0.99421 0.0526797 0.0936528
vt -0.374995 -0.00186085 
vt -0.336703 -0.0823467 
f 24/324/46 22/325/46 27/326/46
